# xmcd
#
# Track frame offsets:
#	150
#	15325
#	30650
#	44650
#	60562
#	76300
#	89087
#	101087
#	115062
#	132425
#
# Disc length: 1951 seconds
#
# Revision: 0
# Processed by: cddbd v1.5.1PL0 Copyright (c) Steve Scherf et al.
# Submitted via: dBpowerAMP V4.0
#
DISCID=7f079d0a
DTITLE=Charlie Rich - Silver Lining
DYEAR=2001
DGENRE=Country
TTITLE0=Will The Circle Be Unbroken
TTITLE1=Down By The Riverside
TTITLE2=Why Me
TTITLE3=Were You There?
TTITLE4=Old Time Religion
TTITLE5=Just A Closer Walk With Thee
TTITLE6=Swing Low, Sweet Chariot
TTITLE7=Amazing Grace
TTITLE8=The Milky White Way
TTITLE9=Sometimes I Feel Like A Motherless Child
EXTD=My name is Glen Bruso. Hope this helps.....
EXTT0=
EXTT1=
EXTT2=
EXTT3=
EXTT4=
EXTT5=
EXTT6=
EXTT7=
EXTT8=
EXTT9=
PLAYORDER=
